<svg width="107" height="16" viewBox="0 0 107 16" fill="none" xmlns="http://www.w3.org/2000/svg">
<path d="M6.2801 7.4619H12.1549V15.1574C11.7634 15.2861 11.3681 15.4026 10.9697 15.5074C10.5713 15.6123 10.1581 15.7008 9.729 15.7717C9.30047 15.8427 8.85132 15.8983 8.3821 15.9391C7.91234 15.9799 7.41459 16 6.88777 16C5.78023 16 4.79951 15.8358 3.9456 15.5074C3.09117 15.1796 2.37201 14.6918 1.78812 14.0457C1.20371 13.3995 0.759847 12.6009 0.456014 11.6497C0.152181 10.699 0 9.60053 0 8.35538C0 7.19126 0.16909 6.13889 0.506741 5.19775C0.844392 4.25713 1.34215 3.45687 2.00054 2.79695C2.65894 2.13704 3.46951 1.62913 4.43174 1.27428C5.39396 0.918901 6.49622 0.740947 7.7385 0.740947C8.52847 0.740947 9.30205 0.825687 10.0582 0.994638C10.8143 1.16412 11.5066 1.38391 12.1348 1.65455L11.0912 4.17239C10.632 3.94254 10.1137 3.74975 9.53666 3.59404C8.95912 3.43833 8.35303 3.36048 7.71842 3.36048C7.02991 3.36048 6.41009 3.4807 5.86002 3.72062C5.30942 3.96107 4.83861 4.30109 4.44653 4.74121C4.05498 5.1808 3.75485 5.71255 3.54507 6.33486C3.33582 6.9577 3.2312 7.65151 3.2312 8.41629C3.2312 9.14717 3.30412 9.81556 3.4489 10.4215C3.59421 11.0273 3.82196 11.5501 4.13266 11.9897C4.44336 12.4298 4.84337 12.7714 5.3332 13.015C5.8225 13.2587 6.4085 13.3805 7.09067 13.3805C7.53612 13.3805 7.91234 13.3603 8.21988 13.3196C8.52688 13.2793 8.81592 13.2316 9.08593 13.1776V10.0814H6.2801V7.4619ZM19.3233 6.43654C18.7764 6.43654 18.3225 6.62933 17.961 7.01543C17.6001 7.40099 17.3925 8.00688 17.338 8.83257H21.2784C21.2715 8.48726 21.2276 8.16895 21.1468 7.87819C21.0659 7.58689 20.9439 7.33479 20.7822 7.12188C20.62 6.90844 20.4176 6.74108 20.1745 6.61927C19.9315 6.49745 19.6477 6.43654 19.3233 6.43654ZM19.7185 16C18.9079 16 18.1618 15.8814 17.4802 15.6446C16.798 15.4079 16.2104 15.0509 15.7174 14.5737C15.2244 14.0965 14.8413 13.4943 14.5681 12.7666C14.2944 12.0389 14.1576 11.1846 14.1576 10.2032C14.1576 9.20808 14.2828 8.33843 14.5327 7.59378C14.7821 6.84912 15.1319 6.2284 15.5811 5.73108C16.0297 5.23323 16.5703 4.85932 17.2017 4.60934C17.8326 4.35882 18.5333 4.2333 19.3032 4.2333C20.053 4.2333 20.7299 4.34664 21.3338 4.57332C21.9383 4.80053 22.4514 5.13366 22.8736 5.57378C23.2958 6.01337 23.6197 6.55306 23.8459 7.19285C24.072 7.83264 24.1851 8.56511 24.1851 9.3908V10.8933H17.2773C17.291 11.3266 17.3602 11.7174 17.4849 12.0659C17.6102 12.4144 17.7856 12.7089 18.0118 12.9494C18.2379 13.1893 18.5116 13.3741 18.8324 13.5028C19.1531 13.631 19.5193 13.6956 19.9315 13.6956C20.2754 13.6956 20.6015 13.6771 20.9085 13.6395C21.216 13.6024 21.5146 13.5468 21.8052 13.4721C22.0953 13.3974 22.3822 13.3047 22.666 13.193C22.9497 13.0812 23.2398 12.9509 23.5373 12.8021V15.1981C23.2673 15.3401 22.9952 15.4603 22.722 15.5583C22.4483 15.6563 22.1597 15.7394 21.8559 15.8072C21.5521 15.875 21.2245 15.9237 20.8731 15.9545C20.5222 15.9846 20.137 16 19.7185 16ZM30.6856 6.43654C30.1387 6.43654 29.6842 6.62933 29.3233 7.01543C28.9619 7.40099 28.7542 8.00688 28.7003 8.83257H32.6401C32.6338 8.48726 32.5899 8.16895 32.5086 7.87819C32.4277 7.58689 32.3062 7.33479 32.144 7.12188C31.9817 6.90844 31.7794 6.74108 31.5363 6.61927C31.2932 6.49745 31.0095 6.43654 30.6856 6.43654ZM31.0803 16C30.2702 16 29.5241 15.8814 28.842 15.6446C28.1598 15.4079 27.5727 15.0509 27.0797 14.5737C26.5867 14.0965 26.2036 13.4943 25.9299 12.7666C25.6562 12.0389 25.5199 11.1846 25.5199 10.2032C25.5199 9.20808 25.6446 8.33843 25.8945 7.59378C26.1444 6.84912 26.4937 6.2284 26.9429 5.73108C27.392 5.23323 27.932 4.85932 28.5635 4.60934C29.1949 4.35882 29.8956 4.2333 30.665 4.2333C31.4148 4.2333 32.0917 4.34664 32.6961 4.57332C33.3006 4.80053 33.8137 5.13366 34.2359 5.57378C34.6576 6.01337 34.982 6.55306 35.2082 7.19285C35.4343 7.83264 35.5474 8.56511 35.5474 9.3908V10.8933H28.6396C28.6528 11.3266 28.722 11.7174 28.8472 12.0659C28.9719 12.4144 29.1474 12.7089 29.3735 12.9494C29.6002 13.1893 29.8734 13.3741 30.1941 13.5028C30.5149 13.631 30.8811 13.6956 31.2932 13.6956C31.6378 13.6956 31.9633 13.6771 32.2708 13.6395C32.5778 13.6024 32.8769 13.5468 33.167 13.4721C33.4576 13.3974 33.7445 13.3047 34.0283 13.193C34.3115 13.0812 34.6021 12.9509 34.8991 12.8021V15.1981C34.6291 15.3401 34.3575 15.4603 34.0837 15.5583C33.81 15.6563 33.5215 15.7394 33.2177 15.8072C32.9139 15.875 32.5862 15.9237 32.2354 15.9545C31.884 15.9846 31.4993 16 31.0803 16ZM40.4368 9.62436L41.5713 7.89831L44.3364 4.44674H47.8207L43.7287 9.37067L48.0844 15.7972H44.5187L41.7641 11.4314L40.5583 12.264V15.7972H37.4692V0H40.5583V7.04561L40.3966 9.62436H40.4368ZM49.7848 0.954385H54.1203C55.0519 0.954385 55.8688 1.02006 56.5716 1.15247C57.2739 1.28434 57.8609 1.49725 58.3339 1.79173C58.8063 2.0862 59.1629 2.47176 59.4023 2.94896C59.6422 3.42615 59.7621 4.0135 59.7621 4.71049C59.7621 5.13049 59.7114 5.52294 59.61 5.88838C59.5085 6.25382 59.36 6.5753 59.1645 6.85283C58.9685 7.13035 58.7307 7.36233 58.4501 7.54823C58.17 7.73413 57.8477 7.85806 57.4831 7.91897V8.02013C57.8546 8.10169 58.2002 8.2182 58.5214 8.37074C58.8422 8.52274 59.1222 8.73247 59.3621 8.99993C59.6015 9.26739 59.7907 9.60424 59.9291 10.0099C60.0676 10.4162 60.1368 10.9103 60.1368 11.4924C60.1368 12.1692 60.0184 12.7735 59.7822 13.3047C59.546 13.8359 59.2068 14.2861 58.7645 14.6548C58.3222 15.0239 57.7854 15.3062 57.1539 15.5027C56.5225 15.6986 55.8081 15.7972 55.0118 15.7972H49.7848V0.954385ZM52.9251 6.83271H54.5558C54.9473 6.83271 55.2749 6.79669 55.5381 6.72572C55.8017 6.65475 56.0142 6.5483 56.1764 6.40583C56.3386 6.26389 56.4548 6.08646 56.5257 5.87302C56.5965 5.66011 56.6324 5.41119 56.6324 5.12678C56.6324 4.55849 56.4548 4.15068 56.1003 3.90334C55.7457 3.65654 55.1835 3.53313 54.4141 3.53313H52.9251V6.83271ZM52.9251 9.32989V13.1977H54.7682C55.1803 13.1977 55.5264 13.1506 55.8065 13.0558C56.0871 12.961 56.3132 12.826 56.4855 12.6496C56.6578 12.4737 56.7809 12.2603 56.8549 12.0103C56.9294 11.7598 56.9663 11.4823 56.9663 11.1778C56.9663 10.9002 56.9294 10.6481 56.8549 10.4215C56.7809 10.1948 56.6541 9.99987 56.4749 9.8378C56.2963 9.67521 56.0617 9.54969 55.7711 9.46177C55.481 9.37385 55.1196 9.32989 54.6873 9.32989H52.9251ZM68.075 4.2333C68.1564 4.2333 68.2457 4.23489 68.3434 4.2386C68.4417 4.24177 68.5363 4.24866 68.6272 4.25872C68.7186 4.26878 68.8026 4.27938 68.8803 4.28944C68.958 4.2995 69.0172 4.31116 69.0578 4.32493V7.22834C69.0034 7.2151 68.9294 7.20133 68.8349 7.18755C68.7403 7.17431 68.6409 7.16266 68.5363 7.15207C68.4312 7.14201 68.3286 7.13512 68.2272 7.13194C68.1257 7.12877 68.0412 7.12665 67.9741 7.12665C67.5757 7.12665 67.209 7.17749 66.875 7.27918C66.5405 7.38087 66.2536 7.54505 66.0137 7.77173C65.7743 7.99841 65.5883 8.29606 65.4568 8.66468C65.3252 9.03383 65.2591 9.4856 65.2591 10.0205V15.7972H62.1701V4.44674H64.5099L64.9653 6.15214H65.1175C65.2797 5.86137 65.4552 5.59709 65.6443 5.36035C65.8335 5.1236 66.0444 4.92235 66.2774 4.75604C66.5104 4.59027 66.7736 4.4621 67.0673 4.37047C67.3611 4.27938 67.6972 4.2333 68.075 4.2333ZM76.8545 15.7972L76.2568 14.2538H76.1654C75.9424 14.5584 75.72 14.8205 75.497 15.0408C75.274 15.2606 75.0309 15.4418 74.7678 15.5837C74.5041 15.7257 74.2087 15.831 73.8817 15.8983C73.5541 15.9661 73.1741 16 72.7419 16C72.2827 16 71.8573 15.9274 71.4658 15.7818C71.0742 15.6361 70.7345 15.4164 70.4476 15.1219C70.1606 14.8274 69.9361 14.4551 69.7744 14.0049C69.6121 13.5552 69.5313 13.0219 69.5313 12.406C69.5313 11.2016 69.916 10.3129 70.6859 9.74088C71.4557 9.16942 72.6071 8.8527 74.1395 8.79179L75.9424 8.73088V7.87819C75.9424 7.41106 75.8077 7.06574 75.5377 6.84277C75.2677 6.61927 74.8893 6.50751 74.4032 6.50751C73.9171 6.50751 73.4426 6.57848 72.9802 6.72095C72.5173 6.86289 72.0534 7.0525 71.5873 7.28924L70.5844 5.23853C71.1519 4.92023 71.7797 4.67024 72.4682 4.48699C73.1572 4.30427 73.8795 4.21317 74.6362 4.21317C76.0471 4.21317 77.1292 4.54472 77.8822 5.20834C78.6352 5.87143 79.012 6.87984 79.012 8.23357V15.7972H76.8545ZM75.9424 10.538L74.9194 10.5787C74.5078 10.592 74.1601 10.6465 73.8764 10.7413C73.5926 10.8356 73.3649 10.9627 73.1926 11.1216C73.0204 11.281 72.8957 11.4706 72.818 11.6904C72.7403 11.9102 72.7012 12.1554 72.7012 12.4266C72.7012 12.9001 72.8164 13.2369 73.0457 13.4366C73.2756 13.6363 73.5757 13.7358 73.9472 13.7358C74.2309 13.7358 74.4941 13.6871 74.7372 13.5886C74.9802 13.4906 75.1916 13.345 75.3702 13.1522C75.5493 12.9594 75.6893 12.7227 75.7908 12.4414C75.8922 12.1607 75.9424 11.8377 75.9424 11.4722V10.538ZM81.3692 1.51261C81.3692 1.22185 81.413 0.979808 81.5007 0.786494C81.5885 0.593711 81.7084 0.438001 81.8601 0.319894C82.0122 0.201258 82.1914 0.118637 82.3969 0.0709702C82.603 0.0238335 82.8207 0 83.0506 0C83.2799 0 83.496 0.0238335 83.6989 0.0709702C83.9013 0.118637 84.0788 0.201258 84.2305 0.319894C84.3827 0.438001 84.5042 0.593711 84.5951 0.786494C84.6865 0.979808 84.7319 1.22185 84.7319 1.51261C84.7319 1.79702 84.6865 2.03694 84.5951 2.23343C84.5042 2.42992 84.3827 2.58722 84.2305 2.70533C84.0788 2.82397 83.9013 2.90871 83.6989 2.95955C83.496 3.00987 83.2799 3.03529 83.0506 3.03529C82.8207 3.03529 82.603 3.00987 82.3969 2.95955C82.1914 2.90871 82.0122 2.82397 81.8601 2.70533C81.7084 2.58722 81.5885 2.42992 81.5007 2.23343C81.413 2.03694 81.3692 1.79702 81.3692 1.51261ZM81.5007 15.7972H84.5903V4.44674H81.5007V15.7972ZM96.9651 15.7972H93.8755V9.16729C93.8755 8.34849 93.7523 7.73413 93.5061 7.32473C93.2593 6.91533 92.8662 6.71036 92.3262 6.71036C91.9209 6.71036 91.5833 6.79192 91.3132 6.95452C91.0427 7.11659 90.8287 7.35703 90.6696 7.67534C90.5111 7.99311 90.398 8.38557 90.3304 8.8527C90.2628 9.31983 90.2289 9.85422 90.2289 10.4569V15.7972H87.1399V4.44674H89.4997L89.9151 5.89844H90.0873C90.2495 5.60715 90.4472 5.35717 90.6802 5.14691C90.9127 4.93717 91.1679 4.76452 91.4448 4.62946C91.7217 4.49388 92.0155 4.39431 92.3262 4.32969C92.6364 4.26561 92.9539 4.2333 93.2778 4.2333C93.8316 4.2333 94.3347 4.31274 94.787 4.47216C95.2398 4.63105 95.6282 4.87997 95.9521 5.21841C96.276 5.55684 96.5259 5.98795 96.7014 6.51281C96.8773 7.03714 96.9651 7.66475 96.9651 8.39616V15.7972ZM107 12.4266C107 13.0219 106.892 13.5431 106.676 13.9901C106.46 14.4365 106.152 14.8089 105.754 15.1065C105.356 15.4042 104.873 15.6277 104.306 15.7765C103.739 15.9253 103.104 16 102.401 16C102.03 16 101.686 15.9883 101.368 15.9645C101.051 15.9407 100.751 15.902 100.467 15.8475C100.183 15.7934 99.9099 15.7257 99.6462 15.6446C99.383 15.5636 99.1162 15.4619 98.8462 15.3401V12.7815C99.1299 12.9239 99.4285 13.0526 99.7429 13.1676C100.057 13.2825 100.369 13.3826 100.68 13.4668C100.99 13.5515 101.292 13.6177 101.586 13.6649C101.88 13.7125 102.152 13.7358 102.401 13.7358C102.678 13.7358 102.915 13.7104 103.11 13.6601C103.306 13.6093 103.467 13.5383 103.592 13.4467C103.716 13.3556 103.808 13.247 103.865 13.122C103.923 12.9965 103.951 12.863 103.951 12.7211C103.951 12.5786 103.929 12.452 103.886 12.3403C103.842 12.2285 103.742 12.1099 103.587 11.9849C103.431 11.8594 103.203 11.7174 102.903 11.5586C102.603 11.3991 102.199 11.2048 101.693 10.9744C101.2 10.7514 100.772 10.5295 100.411 10.3097C100.05 10.0899 99.7529 9.84416 99.5199 9.57352C99.2869 9.30288 99.113 8.99305 98.9984 8.64456C98.8832 8.29606 98.8261 7.88136 98.8261 7.40099C98.8261 6.87295 98.9276 6.41112 99.1299 6.01496C99.3323 5.61933 99.6192 5.28937 99.9907 5.02509C100.362 4.76134 100.81 4.56326 101.333 4.43138C101.857 4.2995 102.439 4.2333 103.08 4.2333C103.756 4.2333 104.397 4.31115 105.005 4.46686C105.612 4.62257 106.237 4.85614 106.878 5.16756L105.947 7.36021C105.433 7.11658 104.944 6.91692 104.478 6.76121C104.012 6.6055 103.546 6.52764 103.08 6.52764C102.661 6.52764 102.36 6.60232 102.174 6.75114C101.988 6.89997 101.895 7.10334 101.895 7.36021C101.895 7.4958 101.919 7.61602 101.966 7.72089C102.013 7.82575 102.108 7.9338 102.25 8.04555C102.391 8.1573 102.59 8.27911 102.847 8.41099C103.104 8.5434 103.438 8.70387 103.85 8.89348C104.329 9.10321 104.762 9.31135 105.146 9.51791C105.532 9.72393 105.862 9.95962 106.139 10.2234C106.416 10.4871 106.629 10.7954 106.777 11.147C106.926 11.4992 107 11.9256 107 12.4266Z" fill="white"/>
</svg>
